<svg xmlns="http://www.w3.org/2000/svg" height="800" width="1200" viewBox="-29.85 -27.2025 258.7 163.215"><path d="M43.657 42.511A6.485 6.485 0 1142.2 29.624c3.557-.4 6.77 2.156 7.168 5.714a6.477 6.477 0 01-5.71 7.173M68.36 25.28c-4.318-1.406-6.675-6.051-5.274-10.367a8.231 8.231 0 0110.376-5.269A8.223 8.223 0 1168.36 25.28m28.62-8.194c-3.936-3.845-4.009-10.154-.163-14.09 3.845-3.932 10.155-4.004 14.092-.156 3.933 3.845 4.003 10.155.157 14.087-3.848 3.935-10.158 4.008-14.087.16m27.883 1.686c-2.332-6.027.66-12.803 6.69-15.133 6.021-2.335 12.8.66 15.133 6.687 2.332 6.024-.66 12.803-6.687 15.133-6.033 2.332-12.8-.663-15.136-6.687m27.558 11.645c0-7.752 6.288-14.04 14.046-14.04 7.752 0 14.037 6.288 14.037 14.04 0 7.75-6.285 14.043-14.037 14.043-7.758 0-14.045-6.293-14.045-14.043" fill="#ed1a3d"/><path d="M108.767 55.474c-11.1 0-19.154 8.057-19.154 19.155 0 8.75 4.978 17.585 16.092 17.585 2.92 0 5.52-.612 7.836-1.882v1.603c0 4.253-.965 8.188-7.979 8.188-1.628 0-3.166-.251-4.561-.646-1.757-.52-3.407-1.37-5.043-2.192l-.184-.084a1.618 1.618 0 00-1.25.014c-.308.12-.529.321-.72.584-.229.308-2.539 3.882-2.698 4.2l-.207.616-.025.246c0 .498.215.943.554 1.259.73.68 1.639 1.202 2.511 1.678.257.14.52.266.78.394 2.696 1.331 6.657 2.618 11.914 2.618 5.622 0 10.068-1.591 13.206-4.732 3.877-3.876 3.877-7.78 3.877-12.714V59.303l-.305-.146c-4.724-2.374-9.926-3.683-14.644-3.683zm4.774 26.74c-.548.354-2.911 1.605-5.627 1.605-3.98 0-7.984-2.999-7.984-9.691 0-6.044 3.577-10.264 8.692-10.264 2.276 0 4.26.7 4.92.957v17.392M48.023 58.072l-.03-.226a1.65 1.65 0 00-1.626-1.374h-7.006c-.914 0-1.655.744-1.655 1.659v32.425c0 .914.74 1.658 1.655 1.658h7.006c.82 0 1.496-.601 1.628-1.384l.028-.249V58.072M199 47.52a1.648 1.648 0 00-1.642-1.555h-7.011c-.9 0-1.62.719-1.642 1.62v43.097c.067.855.775 1.53 1.642 1.53h7.011c.887 0 1.606-.705 1.642-1.586V47.52m-30.277 7.954c-9.945 0-17.16 8.024-17.16 19.08 0 11.334 6.985 18.656 17.8 18.656 6.108 0 10.695-2.23 12.4-3.197.345-.182 1.296-1.029.474-2.634l-1.704-3.34c-.464-.892-1.102-1.082-1.552-1.082-.224 0-.45.045-.791.185l-.21.1c-2.693 1.203-5.235 1.788-7.764 1.788-2.743 0-5.023-.873-6.589-2.529-1.39-1.468-2.005-3.339-2.036-4.673h23.221v-3.342c0-11.906-6.013-19.012-16.09-19.012zm-7.132 14.747c.84-4.285 3.628-6.925 7.344-6.925 5.524 0 6.195 5.183 6.265 6.925h-13.609m-12.624 14.99c-.403-1.096-1.203-1.261-1.653-1.261l-.677.112c-1.01.268-1.935.397-2.917.397-3.756 0-4.069-2.662-4.069-5.633V65.148h9.056c.914 0 1.656-.741 1.656-1.656v-5.367c0-.867-.669-1.566-1.516-1.639l-.115-.014h-.022l-.002-.002-9.056.002v-8.851a1.65 1.65 0 00-1.653-1.653h-7.006c-.262 0-.514.067-.738.179-.7.294-.917.926-.917 1.423v30.904c0 4.88 0 8.404 3.093 11.5 2.816 2.82 7.03 3.236 9.296 3.236 3.47 0 6.019-.83 7.63-1.597.436-.21 1.58-1.007.942-2.763l-1.331-3.639M14.826 60.354c-.604-.28-1.25-.626-1.812-1.068a3.519 3.519 0 01-.982-1.04l-.213-.406-.1-.255a3.435 3.435 0 01-.196-1.143c0-.66.19-1.276.509-1.804.64-1.136 1.837-1.98 3.076-2.347 3.69-1.202 7.688-.078 10.938 1.796l.613.321c.369.221.752.358 1.085.358a1.86 1.86 0 001.376-.612l-.01.011c1.195-1.437 3.086-4.343 3.12-4.394.346-.562.38-1.325.044-1.904l-.333-.445-.478-.383c-5.068-3.518-11.581-4.715-17.62-3.73-3.52.598-6.94 2.186-9.36 4.846C.58 52.347-.227 59.196 2.82 64.096c2.128 3.446 5.753 5.6 9.383 7.17 2.676 1.262 5.616 2.073 8.102 3.72a4.659 4.659 0 012.246 3.989c0 1.837-1.105 3.406-2.55 4.172-.784.414-1.55.741-2.417.915a11.54 11.54 0 01-2.632.196c-.495-.017-.99-.056-1.485-.115-2.892-.257-5.442-1.597-7.982-2.867l-.198-.092a1.79 1.79 0 00-1.345.011c-.336.138-.571.356-.786.638-.246.33-2.733 4.19-2.909 4.536l-.226.658-.02.268c0 .54.23 1.02.596 1.362 2.522 2.126 5.75 3.311 8.924 4.094 5.266 1.122 11.019 1.03 15.885-1.437 8.158-3.745 10.863-15.877 4.676-22.491-4.116-4.315-10.01-6.005-15.256-8.469m70.902 22.091V72.33c.011-4.425.02-9.436-3.88-13.335-2.3-2.299-5.534-3.521-9.362-3.521-4.204 0-6.782 2.07-8.122 3.303v-.643a2.104 2.104 0 00-.064-.425v-.002l-.012-.037-.014-.03-.03-.101-.017-.06-.431-.584-.087-.07-.017-.014-.01-.005-.003-.002a1.636 1.636 0 00-.973-.327h-7.009c-.914 0-1.652.741-1.652 1.659V90.56c0 .914.738 1.655 1.652 1.655h7.009c.822 0 1.493-.598 1.628-1.381l.03-.252-.005-6.533h.005V66.406c.898-.624 3.488-2.034 6.128-2.034 1.535 0 2.755.403 3.527 1.178 1.194 1.191 1.392 3.392 1.392 7.87l.002.735v16.406c0 .914.744 1.655 1.656 1.655h7.006c.82 0 1.496-.598 1.628-1.381l.028-.252-.002-6.527.002-.02V82.45l-.002-.002" fill="#231f20"/></svg>