<svg xmlns="http://www.w3.org/2000/svg" height="800" width="1200" clip-rule="evenodd" fill-rule="evenodd" stroke-linejoin="round" stroke-miterlimit="1.4142" viewBox="-18.89955 -7.9044 163.7961 47.4264"><g fill-rule="nonzero"><path d="M32.352 22.101c-1.505 0-2.482-.393-2.494-1.648.012-.728 0-9.526 0-9.526h6.283V6.329h-6.283V0h-4.586v6.329H9.381s-6.48-.276-6.48 6.254c0 6.509 6.48 6.233 6.48 6.233h7.699c1.347 0 1.628 1.111 1.628 1.641 0 .512-.286 1.649-1.628 1.649H0v4.596h17.011s6.583.288 6.583-6.259c0-6.36-6.583-6.226-6.583-6.226H9.348c-1.34.005-1.63-1.13-1.628-1.644.005-.518.279-1.641 1.628-1.646 1.368.005 15.931 0 15.931 0l-.003 9.526s-.552 6.249 6 6.249h4.865v-4.601m12.055-6.592h4.601v-3.012c0-6.44-6.362-6.168-6.362-6.168h-8.556V26.7h4.656l-.005-15.61 3.883-.005c1.179.005 1.783.675 1.783 2m73.203 2.424h4.598v-3.012c0-6.44-6.36-6.168-6.36-6.168h-8.556V26.7h4.654l-.005-15.61 3.886-.005c1.178.005 1.783.675 1.783 2"/><path d="M52.466 27.019v4.591h5.782c.314.024 2.186.053 3.739-.979 2.208-1.318 3.288-4.682 3.537-5.532.293-1.02 5.621-18.77 5.621-18.77h-5.081l-3.998 14.44-4.006-14.44h-5.078l5.652 18.765.146.473c.214.682-.088 1.445-.796 1.452m19.176-12.97V0h-4.594v26.7h4.594v-5.729l2.606-3.247L84.82 26.7h5.261l-7.039-12.538 6.468-7.833h-5.983"/><path d="M93.844 14.237c.389-1.793 2.794-3.579 5.194-3.579 2.398 0 4.697 1.613 5.191 3.579zm15.368 2.196c-.005-5.633-4.275-10.217-10.174-10.217-6.343.113-10.248 4.593-10.248 10.229.002 5.544 4.279 10.255 9.931 10.252h6.631v-4.596h-6.218c-2.376 0-4.99-1.723-5.29-3.854h15.204c.108-.593.164-1.188.164-1.814z"/></g></svg>