<svg xmlns="http://www.w3.org/2000/svg" width="1200" height="800" viewBox="-43.5279 -19.718025 377.2418 118.30815"><path fill="#fff" d="M149.985 77.2102c6.402 2.708 9.367 2.229 14.413-2.343 2.339-2.121 6.572-7.259 11.788-15.544-.261 2.556-.643 6.225-.773 7.177-.392 2.895-.613 5.907 1.452 8.197 1.886 2.112 4.686 2.378 6.619 2.387h.266c.383-.022 9.219-.496 12.475-.939 5.603-.734 7.05-2.481 8.337-6.402l.291-.865c1.708-4.968 2.995-10.818 3.96-16.726 1.112 4.316 3.82 7.985 7.771 10.298 6.051 3.542 13.77 3.316 20.642-.604 2.978-1.699 5.368-3.916 7.285-6.416.195.317.392.592.573.848l.157.213c2.308 3.282 9.749 9.685 21.397 10.527 4.104.301 11.818.062 17.321-4.885 1.404-1.248 4.769-4.733 5.881-9.933.844-3.981.131-7.91-1.999-11.058-1.461-2.156-3.338-3.942-5.347-5.438.679-.326 1.356-.782 2.021-1.386 3.091-2.847 4.65-7.611 1.917-10.671-7.546-8.476-20.242-9.563-27.679-5.716-3.1 1.595-5.494 3.534-7.225 5.851-1.056-2.343-3.329-3.847-6.264-3.981-1.108-.048-3.033.061-4.459.182-3.564.3-6.125 2.821-6.537 6.351-.604-1.122-1.543-2.06-2.782-2.686-.961-.482-2.481-1.039-4.533-1.761.018 0-1.817-.661-1.817-.661.018.009.044.022.065.022-3.907-1.482-7.472-.387-9.758 3.012-1.052 1.561-2.873 4.585-4.425 8.841.591-7.776.704-13.457.713-14 0 .061-.009.122-.009.178.356-5.494-1.687-8.819-7.059-11.501-17.732-8.824-34.424-8.968-44.125-6.16-10.097 2.93-17.638 10.958-19.351 20.56-8.413-4.633-16.171-4.138-21.494-1.678.081-1.122-.098-2.365-.935-3.521-1.584-2.195-4.349-2.33-5.39-2.377-3.108-.156-5.861-.156-7.229-.156-.169.013-.391 0-.628-.013-1.491-.07-4.986-.226-7.004 3.225-.02.022-.033.057-.05.083-1.606 2.93-3.462 6.194-4.846 8.545l-6.868-8.646c-.042-.048-.098-.117-.144-.165l-.085-.1c-1.975-2.251-4.438-2.712-7.743-1.447-2.31.896-5.605 2.269-7.798 3.343-.9.435-3.001 1.46-3.619 3.812-.152.565-.187 1.108-.147 1.63-1.976-.896-4.112-1.513-6.375-1.826-3.586-.496-7.126-.178-10.384.843.024-1.665-.795-6.438-1.589-7.98-.013-.026-.052-.117-.084-.183-1.474-3.264-4.197-4.607-8.096-3.951-13.518 2.216-18.373 2.469-33.262 2.59-5.362.048-6.7 3.229-7.026 4.594-.498 2.052-.48 11.132-.172 13.118.846 5.438 6.035 5.342 7.739 5.303 2.536-.043 4.323-.156 5.755-.239.237-.008.454-.021.667-.035.296 4.508 1.613 14.652 4.06 24.463l.026.096c1.576 6.376 6.859 5.798 8.443 5.463 1.875-.387 8.417-2.155 10.866-3.072 2.282-.861 3.692-2.8 3.777-5.208.004-.182.004-.373-.004-.556 1.332 1.313 2.862 2.46 4.577 3.412 5.038 2.781 11.429 3.595 16.678 2.082 3.568-1.021 6.587-2.456 9.052-4.29.45.891 1.052 1.651 1.571 2.251 1.023 1.174 6.409 7.106 11.799 7.828 1.901.266 2.912-.073 4.131-.578l.124-.048c3.949-1.625 9.521-8.224 16.567-19.633.293-.479.591-.961.88-1.443-.35.878-.583 1.761-.685 2.564-.391 3.112 1.219 4.898 2.471 5.985-.004-.013.421.36.421.36 2.765 2.435 8.52 7.498 19.18 7.972.989.035 4.497.069 8.311-1.229-.054 2.455 1.567 4.303 2.119 4.933.022.035.044.057.07.083.633.686 6.346 6.763 11.171 8.828m16.661-56.445h-.005.005"/><path fill="#0862ad" d="M202.791 11.2852c-15.786-7.858-31.378-8.693-41.079-5.885-17.93 5.203-23.489 27.205-6.877 37.985 1.005.652.374 2.025-.887 4.221-1.556 2.725-4.446 8.093-9.544 11.962-3.075 2.338-5.068 3.303-2.541 6.185 0 0 5.618 6.068 9.765 7.837 5.003 2.112 6.255 1.761 9.979-1.608 2.339-2.116 6.98-7.906 12.579-17.116 2.903-4.79 6.789-4.882 6.259 2.999 0 0-.765 7.585-.974 9.153-.626 4.521-.139 6.09 4.051 6.129 0 0 9.011-.486 12.136-.908 4.399-.578 4.16-1.265 5.312-4.616 6.155-17.882 6.677-48.582 6.677-48.582.26-4.109-1.087-5.874-4.856-7.756m-11.527 16.556s-5.589 3.703-5.729 3.799c-.474.361-1.126.782-1.213 2.495-.034.713-.252 5.768-.265 6.394-.013.699-.326 2.604-2.604.66 0 0-3.808-3.221-4.373-3.703-.126-.104-1.435-1.53-3.469-.683l-5.963 2.299s-3.591 1.413-2.252-1.699c1.296-3.025 2.165-5.546 2.451-6.355.296-.843.191-2.034-.534-2.869-.335-.374-3.194-4.025-3.852-4.929 0 0-2.351-2.704 1.569-2.521 0 0 6.694.143 6.798.156.113.009 1.365.091 2.261-1.269 1.104-1.673 4.338-5.594 3.664-4.764.565-.682 1.878-2.395 2.747.439 0 0 1.23 3.738 1.813 5.303.4 1.061.652 1.786 2.643 2.399l6.15 2.147c.002.002 2.875.858.158 2.701"/><path fill="#f48120" d="M73.196 35.0912c-2.867-4.594-7.461-7.55-12.936-8.297-6.991-.952-13.757 1.813-17.656 7.189-2.862 3.964-3.784 8.728-2.586 13.431 2.88 11.331 14.408 14.491 21.623 12.43 8.141-2.329 12.694-6.933 13.931-14.048.593-3.433-.272-7.328-2.376-10.705m-19.825 15.309c-2.28-.735-3.975-4.242-3.151-8.05.819-3.813 3.592-6.455 6.168-5.668 2.288.708 3.97 4.434 3.175 8.25-.852 4.06-3.579 6.316-6.192 5.468"/><path fill="#73bd45" d="M218.869 26.4202c-.66.978-5.868 8.606-6.52 20.338-.283 5.216 2.091 9.814 6.358 12.313 4.733 2.773 10.88 2.547 16.435-.63 11.932-6.82 13.271-23.993 12.936-31.743-.074-1.795-1.165-2.869-2.995-2.947-.699-.035-2.212.018-3.92.161-1.734.143-2.773 1.313-2.855 3.208l-.018.504c-.078 7.198-.583 13.592-3.825 17.521-2.121 2.596-4.655 3.63-6.324 2.956-1.491-.591-2.447-2.521-2.213-4.499.569-4.92 2.722-8.789 4.052-11.262l.569-1.073c.813-1.665.404-3.438-.961-4.121-.791-.4-2.517-1.017-4.042-1.561l-1.839-.661c-1.308-.495-3.238-.882-4.838 1.496"/><path fill="#ea1a5b" d="M260.684 21.4042c-5.182 2.678-7.842 6.333-8.389 11.505-.744 6.977 9.084 11.84 11.422 13.066 2.817 1.481 2.921 3.194 2.191 4.212-1.152 1.591-4.343 1.143-6.694.226-2.581-.986-3.895-2.182-6.02-4.568-1.248-1.399-5.038 2.608-5.629 5.403-.273 1.277.243 1.882 1.048 3.024 2.064 2.921 8.706 8.115 18.333 8.815 2.656.195 9.567.348 14.231-3.847 1.886-1.687 3.942-4.494 4.655-7.837.486-2.317.452-5.342-1.417-8.103-2.621-3.881-6.989-6.45-11.841-8.658-7.076-3.221-5.711-5.125-4.129-6.002 1.486-.834 6.52-.248 10.467 3.373 1.999 1.834 6.146-3.86 4.425-5.798-6.302-7.063-17.003-7.728-22.653-4.811"/><path fill="#73bd45" d="M115.221 21.8952c-3.944 12.34-20.772 40.554-27.342 43.257-.93.383-1.117.491-2.082.36-3.49-.486-7.839-4.851-9.236-6.463-.624-.713-1.967-2.355-.887-3.226 4.105-3.272 9.202-8.267 9.445-11.196.054-.639-.146-1.313-.383-1.63-.382-.509-11.047-14.562-12.12-16.057-1.815-2.569-1.806-3.173.206-4.151 2.01-.987 5.212-2.325 7.455-3.195 2.247-.856 2.59-.252 3.223.457l9.56 12.022c.689.47 1.313.339 1.815-.252 1.221-1.439 6.383-10.758 7.193-12.227.952-1.63 2.523-1.182 4.103-1.191 1.678-.013 4.273.009 6.99.139 2.612.136 2.851.871 2.06 3.353"/><path fill="#ea1a5b" d="M120.004 24.8292c-4.303 2.678-6.35 6.042-6.448 10.571-.139 6.116 8.336 10.167 10.464 11.083 2.553 1.1 2.914 2.413 2.456 3.399-.667 1.469-2.188 1.738-3.975 1.378-3.24-.665-5.768-3.499-8.317-4.925-1.443-.791-3.571 1.956-3.881 4.43-.144 1.121.204 1.751 1.134 2.542 2.386 2.073 7.304 6.911 17.06 7.342 2.319.1 8.346-.361 12.092-4.316 1.519-1.604 3.11-3.725 3.484-6.681.252-2.034-.217-4.516-1.823-6.941-1.343-2.025-3.797-4.051-8.096-5.837-6.974-2.869-4.771-5.764-3.116-6.307 1.417-.469 3.898-.104 8.026 2.378 2.238 1.347 5.201-3.942 3.355-5.268-9.258-6.669-17.709-5.769-22.415-2.848M7.456 18.1482c15.137-.117 20.255-.409 33.91-2.651 3.078-.509 3.33 1.021 3.833 2.004.417.817 1.219 5.085 1.165 6.181-.057 1.086.487 2.677-1.356 3.195-5.75 1.604-7.257 2.104-11.075 3.234-1.763.53-1.652 1.269-1.602 2.617.271 7.476 2.76 17.36 4.522 22.884.743 2.33 1.076 3.99-.552 4.607-2.262.83-8.569 2.543-10.26 2.896-2.928.612-3.351-1.535-3.627-2.635-2.484-9.944-3.716-20.072-3.958-23.858-.124-1.93-.756-3.738-2.571-3.69-1.867.035-3.953.265-8.013.339-2.171.048-3.321-.087-3.61-1.943-.292-1.87-.211-10.32.108-11.632.322-1.331 1.86-1.535 3.086-1.548"/><path fill="#fff" d="M290.067 24.3462c0 1.591-1.33 2.882-2.982 2.882-1.639 0-2.973-1.291-2.973-2.882 0-1.582 1.334-2.869 2.973-2.869 1.652.001 2.982 1.287 2.982 2.869"/><path fill="#0862ad" d="M289.536 24.3462c0-1.3-1.096-2.352-2.452-2.352-1.347 0-2.442 1.052-2.442 2.352 0 1.317 1.096 2.36 2.442 2.36 1.357.001 2.452-1.043 2.452-2.36"/><path fill="#fff" d="M289.237 24.3462c0 1.147-.961 2.086-2.152 2.086-1.182 0-2.143-.939-2.143-2.086 0-1.13.961-2.078 2.143-2.078 1.191.001 2.152.948 2.152 2.078"/><path fill="#0862ad" d="M286.103 25.8422v-3.182h.999c.313 0 .557.069.722.204.174.13.257.322.257.591 0 .421-.222.722-.665.904l1.095 1.482h-.573l-.935-1.343h-.431v1.343h-.469m.469-1.673h.148c.591 0 .878-.235.878-.678 0-.326-.244-.496-.73-.496h-.296z"/></svg>